<?xml version="1.0" standalone="no"?>
<!DOCTYPE svg PUBLIC "-//W3C//DTD SVG 20010904//EN"
 "http://www.w3.org/TR/2001/REC-SVG-20010904/DTD/svg10.dtd">
<svg version="1.0" xmlns="http://www.w3.org/2000/svg"
 width="260.000000pt" height="260.000000pt" viewBox="0 0 260.000000 260.000000"
 preserveAspectRatio="xMidYMid meet">
<metadata>
Created by potrace 1.11, written by Peter Selinger 2001-2013
</metadata>
<g transform="translate(0.000000,260.000000) scale(0.100000,-0.100000)"
fill="#000000" stroke="none">
<path d="M385 2220 c-87 -39 -147 -164 -166 -345 -5 -55 -14 -119 -18 -142 -5
-24 -5 -43 -1 -43 3 0 6 -24 5 -52 -1 -29 2 -65 6 -80 5 -17 3 -29 -4 -32 -7
-2 -7 -5 -2 -5 6 -1 10 -17 9 -36 -1 -19 1 -35 5 -35 3 0 7 -19 8 -42 2 -23 6
-44 10 -47 5 -3 10 -15 11 -26 2 -11 7 -22 12 -25 4 -3 6 -13 4 -22 -1 -10 2
-18 7 -18 4 0 6 -7 2 -15 -3 -9 -1 -15 4 -13 5 2 23 -11 39 -28 16 -17 54 -47
84 -67 78 -52 85 -58 104 -95 38 -73 29 -203 -18 -256 -16 -19 -31 -26 -57
-26 -39 0 -57 18 -103 105 -51 99 -75 108 -110 40 -17 -33 -21 -60 -23 -153
-1 -61 2 -112 6 -112 3 0 8 -12 9 -27 1 -15 8 -30 15 -35 8 -5 8 -8 0 -8 -8 0
-8 -6 0 -25 7 -14 15 -25 20 -25 4 0 7 -11 7 -24 0 -16 7 -27 20 -31 11 -3 20
-10 20 -15 0 -4 20 -20 44 -34 34 -20 58 -26 101 -26 64 0 98 20 141 82 15 21
30 35 34 33 5 -3 7 3 6 12 -2 10 3 34 10 55 7 20 10 39 7 42 -4 3 -2 6 4 6 5
0 11 12 12 28 2 32 9 77 11 77 1 0 3 15 5 33 2 19 7 41 10 50 21 51 -8 396
-41 496 -28 83 -104 185 -140 186 -6 0 -19 9 -29 20 -10 11 -23 20 -29 20 -20
0 -65 61 -77 103 -6 23 -9 74 -7 113 6 88 33 148 70 152 32 4 55 -27 88 -118
37 -103 48 -122 73 -118 33 5 59 85 60 188 2 152 -41 264 -125 331 -51 40 -89
48 -133 29z"/>
<path d="M1058 2210 c-7 -11 -18 -20 -24 -20 -6 0 -11 -7 -12 -15 -1 -8 -3
-22 -4 -30 -1 -8 -5 -15 -10 -15 -5 0 -6 -5 -3 -10 4 -6 2 -16 -3 -23 -5 -7
-13 -43 -17 -82 -10 -96 -14 -1459 -4 -1465 5 -3 9 -20 11 -37 1 -17 5 -30 9
-27 4 2 10 -3 13 -12 4 -10 2 -13 -6 -8 -7 4 -8 3 -4 -4 4 -7 16 -12 28 -12
18 0 19 -2 7 -17 -11 -13 -8 -13 12 2 18 13 23 22 15 27 -7 5 -4 8 8 8 11 0
17 3 13 6 -3 4 0 22 8 40 8 19 14 37 15 39 0 3 0 245 1 538 0 292 2 528 5 522
2 -5 13 -100 23 -210 19 -187 29 -275 80 -708 22 -189 45 -257 86 -257 47 0
68 95 114 515 34 304 42 377 51 436 5 36 13 106 17 155 5 59 10 -93 14 -456 4
-395 8 -555 17 -582 15 -44 62 -101 62 -74 0 9 7 16 16 16 13 0 14 3 5 14 -9
11 -9 16 0 22 8 5 10 3 4 -7 -6 -10 -5 -11 4 -3 6 6 13 25 14 42 1 18 5 32 9
32 4 0 7 271 7 603 0 331 0 651 0 711 0 60 -2 113 -5 118 -3 4 -5 30 -6 58 0
27 -4 50 -9 50 -5 0 -9 13 -9 29 0 17 -4 33 -10 36 -5 3 -10 17 -10 31 0 14
-4 23 -9 20 -5 -3 -14 1 -21 9 -33 40 -82 -2 -111 -95 -17 -57 -29 -145 -74
-545 -8 -71 -17 -141 -20 -155 -2 -14 -12 -94 -20 -178 -20 -198 -30 -223 -38
-99 -4 53 -13 150 -22 214 -8 65 -24 195 -35 288 -45 377 -52 422 -72 480 -32
95 -81 132 -110 85z"/>
<path d="M2120 2208 c-39 -25 -66 -56 -94 -108 -60 -111 -116 -372 -120 -557
0 -24 -4 -43 -8 -43 -4 0 -3 -11 2 -25 5 -14 6 -25 2 -25 -4 0 -7 -70 -6 -155
1 -133 -2 -155 -15 -158 -13 -4 -13 -5 2 -6 11 -1 17 -9 17 -23 0 -13 4 -72
10 -133 5 -60 10 -127 12 -147 1 -21 5 -38 8 -38 3 0 6 -8 6 -17 1 -10 4 -29
7 -43 3 -14 8 -34 11 -45 2 -11 9 -32 14 -46 6 -15 8 -30 5 -33 -4 -3 -1 -6 6
-6 7 0 10 -4 6 -10 -10 -16 43 -108 87 -150 54 -53 98 -55 149 -7 33 30 79
125 79 163 0 8 4 13 9 10 4 -3 11 -31 15 -62 8 -67 34 -124 47 -103 6 10 9 10
9 2 0 -8 7 -10 17 -6 11 4 12 8 5 11 -7 2 -12 8 -12 13 0 6 4 8 9 4 9 -5 27
32 23 48 -1 4 4 7 10 7 9 0 8 4 -2 10 -8 5 -10 10 -5 10 6 0 10 53 10 142 -1
79 1 146 3 150 3 7 4 374 1 381 0 1 -2 22 -3 47 -2 25 -7 61 -11 80 -5 19 -8
38 -7 43 1 4 -3 7 -9 7 -5 0 -7 5 -4 10 4 6 -31 10 -98 10 l-105 0 -13 -32
c-9 -21 -14 -71 -14 -133 0 -130 13 -155 82 -155 l46 0 -6 -89 c-17 -237 -137
-315 -202 -131 -38 107 -58 381 -44 613 13 221 39 342 86 397 54 64 98 27 133
-111 26 -105 38 -136 56 -143 49 -19 85 140 64 281 -22 149 -67 244 -141 299
-41 30 -83 30 -129 2z"/>
<path d="M1906 2082 c-3 -5 1 -9 9 -9 8 0 12 4 9 9 -3 4 -7 8 -9 8 -2 0 -6 -4
-9 -8z"/>
<path d="M2460 1180 c8 -5 20 -10 25 -10 6 0 3 5 -5 10 -8 5 -19 10 -25 10 -5
0 -3 -5 5 -10z"/>
<path d="M126 1142 c-3 -5 1 -9 9 -9 8 0 12 4 9 9 -3 4 -7 8 -9 8 -2 0 -6 -4
-9 -8z"/>
<path d="M816 838 c3 -5 10 -6 15 -3 13 9 11 12 -6 12 -8 0 -12 -4 -9 -9z"/>
<path d="M58 803 c6 -2 18 -2 25 0 6 3 1 5 -13 5 -14 0 -19 -2 -12 -5z"/>
<path d="M106 798 c3 -5 10 -6 15 -3 13 9 11 12 -6 12 -8 0 -12 -4 -9 -9z"/>
<path d="M146 798 c3 -5 10 -6 15 -3 13 9 11 12 -6 12 -8 0 -12 -4 -9 -9z"/>
<path d="M1785 800 c-3 -6 1 -7 9 -4 18 7 21 14 7 14 -6 0 -13 -4 -16 -10z"/>
<path d="M1870 796 c7 -7 13 -7 20 0 6 6 3 10 -10 10 -13 0 -16 -4 -10 -10z"/>
<path d="M660 346 c0 -2 8 -10 18 -17 15 -13 16 -12 3 4 -13 16 -21 21 -21 13z"/>
</g>
</svg>
