<svg viewBox="0 0 128 128" fill="none" xmlns="http://www.w3.org/2000/svg">
  <defs>
    <linearGradient id="outer" x1="50%" y1="100%" x2="50%" y2="0%">
      <stop stop-color="#4338CA"/>
      <stop offset=".25" stop-color="#7C3AED"/>
      <stop offset=".5" stop-color="#A855F7"/>
      <stop offset=".75" stop-color="#C084FC"/>
      <stop offset="1" stop-color="#22D3EE"/>
    </linearGradient>
    <linearGradient id="mid" x1="50%" y1="100%" x2="50%" y2="0%">
      <stop stop-color="#6D28D9"/>
      <stop offset=".3" stop-color="#A855F7"/>
      <stop offset=".7" stop-color="#C4B5FD"/>
      <stop offset="1" stop-color="#67E8F9"/>
    </linearGradient>
    <linearGradient id="inner" x1="50%" y1="100%" x2="50%" y2="0%">
      <stop stop-color="#A78BFA"/>
      <stop offset=".4" stop-color="#C4B5FD"/>
      <stop offset=".8" stop-color="#E0E7FF"/>
      <stop offset="1" stop-color="#ECFEFF"/>
    </linearGradient>
    <linearGradient id="core" x1="50%" y1="100%" x2="50%" y2="0%">
      <stop stop-color="#DDD6FE"/>
      <stop offset="1" stop-color="#F0F9FF"/>
    </linearGradient>
  </defs>

  <!-- Main outer flame -->
  <path fill="url(#outer)" opacity=".92"
    d="M64 10C62 10 54 26 50 36C46 46 36 48 34 60C32 72 35 82 40 90C46 98 54 106 64 108C74 106 82 98 88 90C93 82 96 72 94 60C92 48 82 46 78 36C74 26 84 20 86 14C82 22 76 30 74 38C72 48 78 56 76 64C74 54 70 40 68 30C66 20 64 10 64 10Z"/>

  <!-- Middle flame -->
  <path fill="url(#mid)" opacity=".88"
    d="M64 30C62 30 52 46 48 56C44 66 46 78 50 86C54 94 58 100 64 102C70 100 74 94 78 86C82 78 84 66 80 56C78 48 82 38 82 30C80 38 76 46 74 54C72 44 68 36 64 30Z"/>

  <!-- Inner flame -->
  <path fill="url(#inner)" opacity=".85"
    d="M64 50C60 56 54 66 54 76C54 86 58 94 64 100C70 94 74 86 74 76C74 66 68 56 64 50Z"/>

  <!-- Hot core -->
  <path fill="url(#core)" opacity=".7"
    d="M64 72C60 78 56 84 58 92C60 97 62 100 64 101C66 100 68 97 70 92C72 84 68 78 64 72Z"/>

  <!-- White hot center -->
  <ellipse cx="64" cy="92" rx="5" ry="7" fill="#F0F9FF" opacity=".5"/>
</svg>
